<?xml version="1.0" encoding="UTF-8" standalone="no"?>
<svg
   xmlns:dc="http://purl.org/dc/elements/1.1/"
   xmlns:cc="http://creativecommons.org/ns#"
   xmlns:rdf="http://www.w3.org/1999/02/22-rdf-syntax-ns#"
   xmlns:svg="http://www.w3.org/2000/svg"
   xmlns="http://www.w3.org/2000/svg"
   xmlns:sodipodi="http://sodipodi.sourceforge.net/DTD/sodipodi-0.dtd"
   xmlns:inkscape="http://www.inkscape.org/namespaces/inkscape"
   id="Layer_1"
   viewBox="0 0 66.1 24.7"
   version="1.1"
   sodipodi:docname="scratch-logo.svg"
   inkscape:version="0.92.3 (2405546, 2018-03-11)">
  <metadata
     id="metadata29">
    <rdf:RDF>
      <cc:Work
         rdf:about="">
        <dc:format>image/svg+xml</dc:format>
        <dc:type
           rdf:resource="http://purl.org/dc/dcmitype/StillImage" />
        <dc:title />
      </cc:Work>
    </rdf:RDF>
  </metadata>
  <defs
     id="defs27" />
  <sodipodi:namedview
     pagecolor="#ffffff"
     bordercolor="#666666"
     borderopacity="1"
     objecttolerance="10"
     gridtolerance="10"
     guidetolerance="10"
     inkscape:pageopacity="0"
     inkscape:pageshadow="2"
     inkscape:window-width="1920"
     inkscape:window-height="1023"
     id="namedview25"
     showgrid="false"
     inkscape:zoom="10.468987"
     inkscape:cx="17.290127"
     inkscape:cy="15.926799"
     inkscape:window-x="0"
     inkscape:window-y="0"
     inkscape:window-maximized="1"
     inkscape:current-layer="Layer_1"
     showguides="true"
     inkscape:guide-bbox="true" />
  <style
     id="style2">.st0{fill:#fff}.st1{fill:#f9a83a}</style>
  <g
     aria-label="Scratux"
     style="font-style:normal;font-variant:normal;font-weight:normal;font-stretch:normal;font-size:15.80264759px;line-height:1.25;font-family:Coolvetica;-inkscape-font-specification:Coolvetica;letter-spacing:0px;word-spacing:0px;fill:#ffffff;fill-opacity:1;stroke:none;stroke-width:0.3950662"
     id="text18">
    <path
       d="M 13.486437,10.192938 Q 13.407424,9.3870032 12.901739,8.991937 12.396054,8.5968708 11.400487,8.5968708 q -0.932356,0 -1.4064353,0.3160529 -0.4740794,0.316053 -0.4740794,0.9165536 0,0.5056847 0.3634609,0.8059347 0.3792638,0.300251 1.2642118,0.521488 0.900751,0.221237 1.706686,0.442474 0.821738,0.205434 1.406436,0.474079 0.347658,0.158027 0.647908,0.363461 0.30025,0.205435 0.521488,0.505685 0.221237,0.30025 0.347658,0.711119 0.126421,0.410869 0.126421,0.963962 0,0.869145 -0.316053,1.501251 -0.30025,0.616303 -0.869146,1.027172 -0.553092,0.410869 -1.327422,0.600501 -0.758527,0.205434 -1.675081,0.205434 -0.979764,0 -1.7856988,-0.221237 Q 9.1249061,17.525367 8.5402082,17.082893 7.9555102,16.640418 7.6236546,15.99251 7.291799,15.328799 7.2759964,14.44385 h 2.1175547 q 0.031605,0.805935 0.6479089,1.280015 0.632106,0.458277 1.690883,0.458277 0.979764,0 1.501252,-0.379264 0.53729,-0.395066 0.53729,-1.106185 0,-0.23704 -0.07901,-0.426672 Q 13.628661,14.08039 13.439029,13.922363 13.2652,13.748534 12.949147,13.622113 12.633094,13.479889 12.143212,13.36927 11.163448,13.148033 10.483934,12.990007 9.8202226,12.816178 9.26713,12.563335 8.413787,12.184072 7.9555102,11.583571 7.5130361,10.967268 7.5130361,9.9717011 7.5130361,9.260582 7.7500758,8.675884 7.9871155,8.0753834 8.4611949,7.6487119 8.951077,7.2220405 9.6621961,6.9850007 10.389118,6.747961 11.353079,6.747961 q 0.995567,0 1.769897,0.2528424 0.77433,0.2528423 1.295817,0.7111191 0.53729,0.4582768 0.821738,1.0903827 0.30025,0.6321059 0.331855,1.3906328 z"
       style="fill:#ffffff;stroke-width:0.3950662"
       id="path3724"
       inkscape:connector-curvature="0" />
    <path
       d="m 23.489328,14.775706 q -0.07901,0.679514 -0.395066,1.232607 -0.300251,0.553092 -0.77433,0.948158 -0.47408,0.395067 -1.090383,0.616304 -0.6005,0.221237 -1.31162,0.221237 -0.790132,0 -1.453843,-0.252843 -0.647909,-0.268645 -1.121988,-0.790132 -0.47408,-0.53729 -0.742725,-1.31162 -0.252842,-0.790132 -0.252842,-1.833107 0,-1.042975 0.252842,-1.801502 0.268645,-0.758527 0.742725,-1.232606 0.474079,-0.489882 1.137791,-0.726922 0.679513,-0.2370398 1.501251,-0.2370398 0.758527,0 1.37483,0.2054345 0.632106,0.2054343 1.090383,0.6005003 0.47408,0.395066 0.742725,0.948159 0.268645,0.553093 0.316052,1.232607 h -2.070146 q -0.07901,-0.600501 -0.489882,-0.932357 -0.395067,-0.347658 -0.979765,-0.347658 -0.331855,0 -0.616303,0.110619 -0.284448,0.110618 -0.505685,0.379263 -0.205434,0.252843 -0.331855,0.695317 -0.126421,0.426671 -0.126421,1.058777 0,1.280015 0.458276,1.896318 0.458277,0.616303 1.058778,0.616303 0.6005,0 1.027172,-0.331855 0.426671,-0.331856 0.489882,-0.963962 z"
       style="fill:#ffffff;stroke-width:0.3950662"
       id="path3726"
       inkscape:connector-curvature="0" />
    <path
       d="M 24.089631,17.588577 V 9.8136747 h 1.927923 v 0.9323563 q 0.252842,-0.395066 0.521487,-0.616303 0.284448,-0.2212375 0.568895,-0.331856 0.300251,-0.1264212 0.600501,-0.1580265 0.30025,-0.031605 0.616303,-0.031605 h 0.268645 v 2.1017515 q -0.284447,-0.04741 -0.568895,-0.04741 -1.880515,0 -1.880515,1.880515 v 4.045478 z"
       style="fill:#ffffff;stroke-width:0.3950662"
       id="path3728"
       inkscape:connector-curvature="0" />
    <path
       d="m 33.508234,13.780139 q -0.158027,0.158027 -0.458277,0.252843 -0.300251,0.09481 -0.869146,0.205434 -0.884948,0.173829 -1.216804,0.442474 -0.331855,0.268645 -0.331855,0.77433 0,0.869145 0.995567,0.869145 0.395066,0 0.726921,-0.126421 0.347659,-0.142224 0.584698,-0.363461 0.252843,-0.237039 0.395066,-0.53729 0.158027,-0.316053 0.158027,-0.663711 z m 0.142223,3.808438 q -0.09482,-0.30025 -0.126421,-0.695316 -0.363461,0.410869 -0.963961,0.663711 -0.600501,0.23704 -1.390633,0.23704 -1.343225,0 -1.975331,-0.584698 -0.616303,-0.600501 -0.616303,-1.54866 0,-0.83754 0.268645,-1.327422 0.268645,-0.505685 0.742724,-0.790133 0.474079,-0.284447 1.121988,-0.410868 0.663711,-0.142224 1.438041,-0.252843 0.77433,-0.110618 1.042975,-0.284447 0.268645,-0.189632 0.268645,-0.600501 0,-0.379264 -0.363461,-0.584698 -0.347659,-0.221237 -0.948159,-0.221237 -0.711119,0 -1.027172,0.316053 -0.300251,0.316053 -0.379264,0.83754 h -1.91212 q 0.0158,-0.6005 0.189632,-1.106185 0.189631,-0.505685 0.584698,-0.869146 0.410868,-0.363461 1.058777,-0.5530923 0.647909,-0.2054345 1.580265,-0.2054345 0.916553,0 1.548659,0.2054345 0.647909,0.2054343 1.027172,0.6005003 0.395067,0.379264 0.568896,0.963962 0.173829,0.568895 0.173829,1.295817 v 4.914623 z"
       style="fill:#ffffff;stroke-width:0.3950662"
       id="path3730"
       inkscape:connector-curvature="0" />
    <path
       d="m 40.872148,12.468519 h 1.912121 v 2.212371 q 0,0.616303 -0.189632,1.185199 -0.173829,0.553092 -0.568895,0.995566 -0.379264,0.426672 -0.979764,0.679514 -0.584698,0.252843 -1.406436,0.252843 -0.853343,0 -1.453844,-0.252843 -0.6005,-0.252842 -0.995566,-0.679514 Q 36.810868,16.434984 36.637039,15.866089 36.46321,15.297193 36.46321,14.665087 V 7.7119225 h 2.022739 v 2.1017522 h 4.29832 v 1.4538433 h -4.29832 v 3.192135 q 0,0.742724 0.268645,1.153593 0.284447,0.395067 0.916553,0.395067 0.616304,0 0.900751,-0.395067 0.30025,-0.395066 0.30025,-1.121988 z"
       style="fill:#ffffff;stroke-width:0.3950662"
       id="path3732"
       inkscape:connector-curvature="0" />
    <path
       d="m 48.678705,17.588577 v -1.090382 q -0.790133,1.295817 -2.417805,1.295817 -0.584698,0 -1.074581,-0.205435 -0.474079,-0.205434 -0.821737,-0.584698 -0.347658,-0.379263 -0.553093,-0.900751 -0.189632,-0.521487 -0.189632,-1.169396 V 9.8136747 h 2.054345 V 14.61768 q 0,1.453843 1.311619,1.453843 0.790133,0 1.185199,-0.489882 0.410869,-0.505685 0.410869,-1.280014 V 9.8136747 h 2.038541 v 7.7749023 z"
       style="fill:#ffffff;stroke-width:0.3950662"
       id="path3734"
       inkscape:connector-curvature="0" />
    <path
       d="m 56.311381,17.588577 -1.359028,-2.338792 -1.327422,2.338792 h -2.465213 l 2.607437,-3.966464 -2.528424,-3.8084383 h 2.481016 l 1.31162,2.2597783 1.327422,-2.2597783 h 2.3862 l -2.575832,3.8084383 2.654845,3.966464 z"
       style="fill:#ffffff;stroke-width:0.3950662"
       id="path3736"
       inkscape:connector-curvature="0" />
  </g>
</svg>
