<?xml version="1.0" encoding="UTF-8" standalone="no"?>
<svg
   xmlns:dc="http://purl.org/dc/elements/1.1/"
   xmlns:cc="http://creativecommons.org/ns#"
   xmlns:rdf="http://www.w3.org/1999/02/22-rdf-syntax-ns#"
   xmlns:svg="http://www.w3.org/2000/svg"
   xmlns="http://www.w3.org/2000/svg"
   xmlns:sodipodi="http://sodipodi.sourceforge.net/DTD/sodipodi-0.dtd"
   xmlns:inkscape="http://www.inkscape.org/namespaces/inkscape"
   id="Layer_1"
   viewBox="0 0 66.1 24.7"
   version="1.1"
   sodipodi:docname="scratch-logo.svg"
   inkscape:version="0.92.3 (2405546, 2018-03-11)">
  <metadata
     id="metadata29">
    <rdf:RDF>
      <cc:Work
         rdf:about="">
        <dc:format>image/svg+xml</dc:format>
        <dc:type
           rdf:resource="http://purl.org/dc/dcmitype/StillImage" />
        <dc:title></dc:title>
      </cc:Work>
    </rdf:RDF>
  </metadata>
  <defs
     id="defs27" />
  <sodipodi:namedview
     pagecolor="#ffffff"
     bordercolor="#666666"
     borderopacity="1"
     objecttolerance="10"
     gridtolerance="10"
     guidetolerance="10"
     inkscape:pageopacity="0"
     inkscape:pageshadow="2"
     inkscape:window-width="1920"
     inkscape:window-height="1055"
     id="namedview25"
     showgrid="false"
     inkscape:zoom="5.2344933"
     inkscape:cx="-2.0402037"
     inkscape:cy="6.17581"
     inkscape:window-x="0"
     inkscape:window-y="0"
     inkscape:window-maximized="1"
     inkscape:current-layer="Layer_1"
     showguides="true"
     inkscape:guide-bbox="true">
    <sodipodi:guide
       position="-98.576879,92.84566"
       orientation="0,1"
       id="guide875"
       inkscape:locked="false" />
  </sodipodi:namedview>
  <style
     id="style2">.st0{fill:#fff}.st1{fill:#f9a83a}</style>
  <g
     aria-label="Scratux"
     transform="translate(3.7153096,-2.8504334)"
     style="font-style:normal;font-variant:normal;font-weight:normal;font-stretch:normal;font-size:17.33333397px;line-height:1.25;font-family:'Architects Daughter';-inkscape-font-specification:'Architects Daughter';letter-spacing:-0.23999999px;word-spacing:0px;fill:#ffffff;fill-opacity:1;stroke:none"
     id="flowRoot836">
    <path
       d="m -2.0390625,19.356033 q 0,-0.321615 0.2539063,-0.558594 0.2708333,-0.253906 0.40625,-0.338542 0.1523437,-0.101562 0.203125,-0.152343 0.084635,1.540364 2.08203132,1.540364 1.57421878,0 3.67317718,-0.981771 1.4895834,-0.677083 1.9973959,-1.38802 0.1692709,-0.220053 0.1692709,-0.355469 0,-0.152344 -0.050781,-0.236979 L -0.32942701,15.31046 q -0.30468751,-0.06771 -0.59244794,-0.287761 -0.52473965,-0.372395 -0.52473965,-0.677083 0,-1.167969 1.65885428,-2.115885 1.82812502,-1.032553 4.89192722,-1.557292 0.6940105,-0.11849 1.0325522,-0.135417 0.1015625,0.03385 0.3046875,0.06771 0.2200521,0.01693 0.4401042,0.06771 0.5247396,0.118489 0.4401041,0.440104 0,0.575521 -2.2005209,0.914063 -2.8437501,0.423177 -3.5546876,0.710937 -0.69401045,0.28776 -1.01562505,0.592448 -0.30468751,0.304688 -0.32161459,0.727865 0,0.08464 0.38932293,0.186198 0.38932291,0.101562 0.93098961,0.253906 0.5416667,0.135416 1.404948,0.372396 2.0989584,0.57552 5.1458335,1.455729 0.1692708,0.372396 0.1692708,0.69401 0,0.897136 -1.0494792,1.726563 -1.1848958,0.930989 -3.2838543,1.574219 -1.7434896,0.524739 -2.7760417,0.524739 -0.86328131,0 -1.64192717,-0.304687 Q -1.2604166,20.236241 -1.6497396,19.948481 -2.0390625,19.66072 -2.0390625,19.356033 Z"
       id="path925"
       inkscape:connector-curvature="0"
       style="fill:#ffffff" />
    <path
       d="m 15.900626,19.051345 q 0.694011,-0.28776 1.354167,-0.524739 0.660156,-0.236979 1.252604,-0.236979 0.609375,0 0.609375,0.372395 0,0.08464 -0.05078,0.270834 -0.03385,0.169271 -0.457031,0.423177 -0.40625,0.236979 -1.015625,0.457031 -0.592448,0.220052 -1.303386,0.40625 -0.710937,0.186198 -1.388021,0.321615 -1.404948,0.28776 -1.997396,0.28776 -0.592448,0 -1.286458,-0.135416 -0.677083,-0.135417 -1.269531,-0.440105 -1.3710942,-0.710937 -1.3710942,-2.098958 0,-0.101563 0,-0.40625 0,-0.304688 0.2539063,-0.863281 0.2539062,-0.575521 0.7617187,-1.134115 0.5078122,-0.575521 1.1848962,-1.049479 1.421875,-1.015625 2.979166,-1.320313 0.541667,-0.118489 0.897136,-0.118489 0.372396,0 0.609375,0.01693 0.236979,0 0.490885,0.03385 0.253907,0.01693 0.440105,0.118489 0.440104,0.220053 0.440104,0.863282 0,0.40625 -0.575521,0.795573 -0.152344,0.101562 -0.270833,0.186198 -0.08464,-0.389323 -0.220053,-0.660157 -0.135416,-0.270833 -0.592447,-0.270833 -1.997396,0.423177 -3.436199,1.269531 -1.625,0.964844 -1.625,2.03125 0,0.11849 0.01693,0.253907 0,1.083333 0.829427,1.540364 0.626302,0.338542 1.608073,0.338542 0.998698,0 1.726562,-0.220052 0.727865,-0.236979 1.404948,-0.507813 z"
       id="path927"
       inkscape:connector-curvature="0"
       style="fill:#ffffff" />
    <path
       d="m 28.102033,14.650304 q -0.710938,-0.507813 -1.828125,-0.507813 -1.04948,0 -1.946615,0.389323 -1.692708,0.710937 -2.319011,1.828125 -0.270833,0.507813 -0.270833,1.083333 0,0.101563 0,0.575521 0,0.457032 0.169271,1.252604 0.169271,0.778646 0.169271,1.591146 -0.355469,0.01693 -0.575521,0.08464 -0.220052,0.06771 -0.372396,0.06771 -0.152344,0 -0.270833,-0.135417 -0.101563,-0.135416 -0.236979,-0.524739 -0.01693,-0.101563 -0.06771,-0.575521 -0.05078,-0.473958 -0.135416,-1.151042 -0.06771,-0.677083 -0.169271,-1.472656 -0.08464,-0.8125 -0.169271,-1.591146 -0.186198,-1.692708 -0.287761,-2.488281 0,-0.40625 0.592448,-0.40625 0.355469,0 0.558594,0.304687 0.203125,0.287761 0.321615,0.677084 0.118489,0.372395 0.152344,0.744791 0.05078,0.372396 0.08463,0.52474 2.234375,-1.997396 5.552083,-1.997396 0.372396,0 0.778646,0.01693 0.101563,-0.01693 0.253907,-0.01693 0.152343,0 0.304687,0.203125 0.186198,0.236979 0.186198,0.575521 0,0.846354 -0.473958,0.947917 z"
       id="path929"
       inkscape:connector-curvature="0"
       style="fill:#ffffff" />
    <path
       d="m 35.783907,18.018793 q -1.269531,1.997396 -3.385417,2.471355 -0.490885,0.101562 -0.897135,0.101562 -0.389323,0 -0.660156,0 -0.253907,-0.01693 -0.575521,-0.08463 -0.321615,-0.06771 -0.592448,-0.220052 -0.626302,-0.355469 -0.626302,-0.998698 -0.06771,-0.304688 -0.06771,-0.677084 0,-0.389323 0.169271,-1.015625 0.169271,-0.626302 0.609375,-1.354167 0.457032,-0.727864 1.100261,-1.337239 1.337239,-1.286459 2.894531,-1.658854 0.457031,-0.101563 0.829427,-0.101563 0.389323,0 0.694011,0.05078 0.981771,0 1.320312,1.33724 0.220052,0.846354 0.253906,2.369792 0.05078,1.50651 0.08464,2.335937 0.05078,0.8125 0.220052,1.489584 h -0.998698 q -0.06771,-0.457032 -0.101562,-0.8125 -0.03386,-0.355469 -0.06771,-0.660157 -0.08463,-0.710937 -0.203125,-1.235677 z m -0.06771,-2.623698 q 0,-0.981771 -0.964844,-0.981771 -0.11849,-0.01693 -0.236979,-0.01693 -1.235677,0 -2.606771,1.184896 -0.643229,0.541667 -1.10026,1.21875 -0.677084,0.964844 -0.677084,1.726563 0,0.998698 1.151042,1.184896 1.523437,-0.03385 2.911458,-1.388021 0.592448,-0.592448 0.981771,-1.286459 0.541667,-0.930989 0.541667,-1.641927 z"
       id="path931"
       inkscape:connector-curvature="0"
       style="fill:#ffffff" />
    <path
       d="m 40.283491,19.203689 0.03385,-2.708333 q 0,-0.643229 -0.11849,-1.100261 h -2.623698 l -0.03385,-1.167969 h 2.539063 V 9.8599388 q 0.05078,-0.1523438 0.203125,-0.3046875 0.236979,-0.2369792 0.389323,-0.2369792 0.16927,0 0.28776,0.033854 0.11849,0.033854 0.253906,0.2369791 0.270834,1.1171878 0.270834,3.3684898 0,0.558594 0.05078,1.100261 0.541667,-0.06771 1.083333,-0.06771 0,0 0.880209,0 0.321614,0 0.592447,-0.03385 l -0.05078,1.21875 -2.471354,-0.06771 0.08463,5.839844 q -0.304687,0.135416 -0.524739,0.135416 -0.846354,0 -0.846354,-1.878906 z"
       id="path933"
       inkscape:connector-curvature="0"
       style="fill:#ffffff" />
    <path
       d="m 44.41068,18.577387 q 0,-0.270833 -0.05078,-0.744792 -0.03385,-0.490885 -0.06771,-1.066406 -0.03386,-0.575521 -0.03386,-1.167969 0,-0.592448 0.101563,-1.083333 0.220052,-1.100261 0.914062,-1.100261 0.473959,0.135417 0.626303,0.338542 0.16927,0.203125 0.16927,0.507813 0,0.28776 -0.152343,0.727864 -0.558594,1.472657 -0.558594,2.657552 0,0.389323 0.05078,0.829428 0.270833,1.134114 1.861979,1.134114 0.829427,0 1.574219,-0.28776 1.421875,-0.52474 1.929688,-1.235677 0.152343,-0.778646 0.152343,-1.354167 0,-0.592448 -0.05078,-1.049479 -0.03385,-0.457032 -0.101562,-0.998698 -0.05078,-0.558594 -0.06771,-1.21875 0.220052,-0.101563 0.423177,-0.101563 0.220053,0 0.440105,0.220052 0.236979,0.220052 0.389323,0.829427 0.16927,0.609375 0.220052,1.438803 0.05078,0.8125 0.05078,1.692708 0.01693,0.880208 0.01693,1.709635 0,0.8125 0.06771,1.404948 -0.203125,0.186198 -0.389323,0.186198 -0.677083,0 -0.998698,-1.354166 -0.220052,0.186197 -0.744791,0.457031 -1.117188,0.609375 -2.640625,0.8125 -0.287761,0.03385 -0.64323,0.03385 -0.355468,0 -0.897135,-0.135417 -0.52474,-0.135416 -0.998698,-0.626302 -0.473958,-0.490885 -0.592448,-1.455729 z"
       id="path935"
       inkscape:connector-curvature="0"
       style="fill:#ffffff" />
    <path
       d="m 53.040473,20.320877 q 0.829427,-0.829427 1.675781,-1.895834 0.846354,-1.066406 1.032552,-1.421875 l -1.421875,-1.557292 q -0.270833,-0.28776 -0.52474,-0.57552 -0.253906,-0.287761 -0.457031,-0.507813 -0.203125,-0.220052 -0.321614,-0.372396 l -0.11849,-0.135416 0.981771,-1.04948 q 0.761719,0.93099 1.117187,1.421875 0.372396,0.473959 0.592448,0.761719 0.372396,0.473959 1.083334,1.167969 0.236979,-0.338542 0.846354,-1.21875 1.015625,-1.506511 1.625,-2.234375 0.389323,0 0.626302,0.270833 0.236979,0.270834 0.236979,0.507813 -0.440104,0.947916 -1.269531,1.997396 -0.304688,0.372396 -0.558594,0.727864 -0.253906,0.338542 -0.40625,0.744792 1.032552,0.727865 2.471354,2.471354 0.321615,0.389323 0.457032,0.592448 0,0.11849 -0.186198,0.355469 -0.287761,0.40625 -0.507813,0.507812 -0.321614,-0.152343 -0.677083,-0.541666 -0.338542,-0.40625 -0.727865,-0.880209 -0.389323,-0.473958 -0.8125,-0.947916 -0.40625,-0.473959 -0.863281,-0.778646 -0.389323,0.440104 -1.083333,1.269531 -1.269532,1.523438 -1.692709,1.828125 -0.321614,0.06771 -0.914062,-0.304687 -0.152344,-0.08464 -0.203125,-0.203125 z"
       id="path937"
       inkscape:connector-curvature="0"
       style="fill:#ffffff" />
  </g>
</svg>
